<svg width="50" height="50" viewBox="0 0 50 50" fill="none" xmlns="http://www.w3.org/2000/svg">
<circle cx="25" cy="25" r="25" fill="#050505"/>
<path fill-rule="evenodd" clip-rule="evenodd" d="M20 7C20 5.89543 20.8954 5 22 5H28C29.1046 5 30 5.89543 30 7V10.6633C30.408 10.7869 30.8089 10.9269 31.2019 11.0824L33.8701 8.41422C34.6511 7.63317 35.9174 7.63317 36.6985 8.41422L40.9411 12.6569C41.7222 13.4379 41.7222 14.7042 40.9411 15.4853L38.834 17.5924C39.2873 18.3552 39.677 19.1601 39.9959 20H43C44.1046 20 45 20.8954 45 22V28C45 29.1046 44.1046 30 43 30H40.3367C40.0912 30.8105 39.7811 31.5929 39.4124 32.3413L40.9411 33.87C41.7222 34.6511 41.7222 35.9174 40.9411 36.6985L36.6985 40.9411C35.9174 41.7221 34.6511 41.7221 33.8701 40.9411L32.3413 39.4124C31.593 39.7811 30.8105 40.0912 30 40.3367V43C30 44.1046 29.1046 45 28 45H22C20.8954 45 20 44.1046 20 43V39.9959C19.1601 39.677 18.3552 39.2873 17.5924 38.834L15.4853 40.9411C14.7042 41.7222 13.4379 41.7222 12.6569 40.9411L8.41421 36.6985C7.63317 35.9174 7.63317 34.6511 8.41421 33.8701L11.0824 31.2019C10.9269 30.8089 10.7869 30.408 10.6633 30H7C5.89543 30 5 29.1046 5 28V22C5 20.8954 5.89543 20 7 20H11.0041C11.178 19.5421 11.3729 19.0946 11.5876 18.6587L8.41421 15.4853C7.63317 14.7042 7.63317 13.4379 8.41421 12.6568L12.6569 8.41418C13.4379 7.63313 14.7042 7.63314 15.4853 8.41418L18.6587 11.5876C19.0946 11.3728 19.5421 11.178 20 11.0041V7Z" fill="white"/>
<circle cx="25.5" cy="25.5" r="10.5" fill="#050505"/>
</svg>
